<?xml version="1.0" encoding="UTF-8"?>
<svg width="419px" height="421px" viewBox="0 0 419 421" version="1.1" xmlns="http://www.w3.org/2000/svg" xmlns:xlink="http://www.w3.org/1999/xlink">
    <!-- Generator: Sketch 42 (36781) - http://www.bohemiancoding.com/sketch -->
    <title>Group 35</title>
    <desc>Created with Sketch.</desc>
    <defs>
        <path d="M170,304 C263.888407,304 340,278.256373 340,246.5 C340,214.743627 263.888407,189 170,189 C76.1115925,189 0,214.743627 0,246.5 C0,278.256373 76.1115925,304 170,304 Z" id="path-1"></path>
        <filter x="-50%" y="-50%" width="200%" height="200%" filterUnits="objectBoundingBox" id="filter-2">
            <feOffset dx="0" dy="5" in="SourceAlpha" result="shadowOffsetInner1"></feOffset>
            <feComposite in="shadowOffsetInner1" in2="SourceAlpha" operator="arithmetic" k2="-1" k3="1" result="shadowInnerInner1"></feComposite>
            <feColorMatrix values="0 0 0 0 0.435905612   0 0 0 0 0.435905612   0 0 0 0 0.435905612  0 0 0 0.5 0" type="matrix" in="shadowInnerInner1"></feColorMatrix>
        </filter>
        <path d="M187,141.475518 C187,140.371601 187.900346,139.439401 189.007461,139.393537 L219.992539,138.109931 C221.101229,138.064002 222,138.922399 222,140.02772 L222,157.501386 C222,167.165604 214.167108,175 204.5,175 L204.5,175 C194.835017,175 187,167.160284 187,157.498522 L187,141.475518 Z" id="path-3"></path>
        <linearGradient x1="37.0590477%" y1="1.70370869%" x2="37.0590478%" y2="84.5704277%" id="linearGradient-5">
            <stop stop-color="#84D7FB" offset="0%"></stop>
            <stop stop-color="#6BC5ED" offset="100%"></stop>
        </linearGradient>
        <linearGradient x1="50%" y1="0%" x2="50%" y2="100%" id="linearGradient-6">
            <stop stop-color="#82D6FB" offset="0%"></stop>
            <stop stop-color="#94DEFF" offset="100%"></stop>
        </linearGradient>
        <linearGradient x1="50%" y1="0%" x2="50%" y2="100%" id="linearGradient-7">
            <stop stop-color="#59C2F1" offset="0%"></stop>
            <stop stop-color="#94DEFF" offset="100%"></stop>
        </linearGradient>
        <linearGradient x1="0%" y1="31.68506%" x2="98.2962913%" y2="62.9409523%" id="linearGradient-8">
            <stop stop-color="#59C2F1" offset="0%"></stop>
            <stop stop-color="#7BD2F9" offset="100%"></stop>
        </linearGradient>
        <linearGradient x1="37.0590477%" y1="1.70370869%" x2="62.9409523%" y2="98.2962913%" id="linearGradient-9">
            <stop stop-color="#67C2EB" offset="0%"></stop>
            <stop stop-color="#89D9FD" offset="100%"></stop>
        </linearGradient>
    </defs>
    <g id="Logo" stroke="none" stroke-width="1" fill="none" fill-rule="evenodd">
        <g id="Group-36" transform="translate(-524.000000, -282.000000)">
            <g id="Group-35" transform="translate(524.000000, 282.000000)">
                <g id="Group-7-Copy-5" transform="translate(58.000000, 83.000000)">
                    <ellipse id="Oval-7" fill="#65C7F4" cx="194" cy="178" rx="8" ry="8"></ellipse>
                    <g id="Group-Copy" transform="translate(0.000000, 34.000000)">
                        <g id="Oval-3">
                            <use fill="#1F282C" fill-rule="evenodd" xlink:href="#path-1"></use>
                            <use fill="black" fill-opacity="1" filter="url(#filter-2)" xlink:href="#path-1"></use>
                        </g>
                        <path d="M283.9563,244 L284,244 C284,244 297,243 297,225 C297,207 284,207.864081 284,207.864081 C284,207.864081 300,207.864081 300,188 C300,168.135919 284,167 284,167 C284,167 300,167 300,145 C300,123 284,123.335201 284,123.335201 L284,121.992124 C284,54.6127708 229.378665,0 161.999835,0 L175.000165,0 C107.615741,0 53,54.6212605 53,122 L53,244 L53.0437001,244 C54.7429708,263.41989 105.784036,279 168.5,279 C231.215964,279 282.257029,263.41989 283.9563,244 Z" id="Combined-Shape" fill="#59C2F1"></path>
                        <circle id="Oval-4" fill="#20292C" cx="154.5" cy="121.5" r="6.5"></circle>
                        <ellipse id="Oval-4-Copy" fill="#20292C" cx="241.5" cy="115.5" rx="6.5" ry="6.5"></ellipse>
                        <mask id="mask-4" fill="white">
                            <use xlink:href="#path-3"></use>
                        </mask>
                        <use id="Mask" fill="#20292C" xlink:href="#path-3"></use>
                    </g>
                    <g id="Group-10" transform="translate(184.000000, 0.000000)">
                        <rect id="Rectangle-3-Copy" fill="#59C2F1" transform="translate(16.906192, 29.634114) rotate(-345.000000) translate(-16.906192, -29.634114) " x="6.90619153" y="1.63411359" width="20" height="56" rx="10"></rect>
                        <path d="M31.4614749,11.0021918 C31.4599032,6.58541999 28.514301,2.54670183 24.0484988,1.35009374 C18.7126648,-0.0796386699 13.2295814,3.08981027 11.7990693,8.42855409 L2.2063773,44.2289679 C1.23819486,47.8422739 2.37414827,51.5217857 4.86248819,53.9665389 C4.8621824,53.1072193 4.97331679,52.2335893 5.2063773,51.3637957 L14.7990693,15.5633819 C16.2295814,10.2246381 21.7126648,7.05518912 27.0484988,8.48492152 C28.7737372,8.94719776 30.2720936,9.83364421 31.4614749,11.0021918 Z" id="Combined-Shape-Copy-4" fill="url(#linearGradient-5)"></path>
                    </g>
                    <path d="M255.939126,78.2759745 C234.988115,50.6573109 202.967623,33 167.084361,33 C107.4349,33 52.8059997,87.6212605 52.8059997,155 C52.8059997,155 36,153 36,179 C36,205 52.8059997,205 52.8059997,205 C52.8059997,205 36,205 36,225 C36,245 52.8059997,245 52.8059997,245 C52.8059997,245 37.9932383,245 37.9932383,261 C37.9932383,277 52.8059997,277 52.8059997,277 L52.9425256,277 C52.9425256,286.693064 65.2019682,295.491384 85.1400362,301.963539 L85.1400362,179.212102 C85.1400362,115.582215 136.723776,64 200.346754,64 C220.506007,64 239.455915,69.1776723 255.939126,78.2759745 Z" id="Combined-Shape-Copy-5" fill="url(#linearGradient-6)"></path>
                    <g id="Group-3-Copy" transform="translate(145.130833, 228.900635) rotate(196.000000) translate(-145.130833, -228.900635) translate(120.130833, 210.400635)">
                        <g id="Group-2" transform="translate(-0.000000, -0.000000)">
                            <path d="M35.3180725,-4.00700514 L35.3180725,30.9501265 C35.3180725,36.4966495 30.8421343,40.9929949 25.3180725,40.9929949 L25.3180725,40.9929949 C19.795225,40.9929949 15.3180725,36.4929661 15.3180725,30.9501265 L15.3180725,-4.00700514" id="Rectangle-3-Copy-6" fill="#3B86A7" transform="translate(25.318073, 18.492995) rotate(-68.000000) translate(-25.318073, -18.492995) "></path>
                            <path d="M34.3215215,-7.01731322 L34.3215215,27.9398184 C34.3215215,33.4863414 29.8455834,37.9826868 24.3215215,37.9826868 L24.3215215,37.9826868 C18.798674,37.9826868 14.3215215,33.4826581 14.3215215,27.9398184 L14.3215215,-7.01731322" id="Rectangle-3-Copy-2" fill="url(#linearGradient-7)" transform="translate(24.321522, 15.482687) rotate(-75.000000) translate(-24.321522, -15.482687) "></path>
                        </g>
                        <g id="Group-2-Copy-4" transform="translate(-0.000000, 10.000000)" fill="url(#linearGradient-8)">
                            <path d="M42.1892504,0.688604056 C45.8682406,2.97605782 47.7765383,7.53216615 46.5790597,12.0012171 C45.118833,17.4508573 39.5883915,20.7039704 34.2344195,19.2693779 L0.468423249,10.2218065 L1.44469889,6.5782962 L30.1482066,14.2693779 C35.5021786,15.7039704 41.0326202,12.4508573 42.4928468,7.00121715 C43.0753671,4.82722179 42.9229392,2.63262525 42.1892504,0.688604056 Z" id="Combined-Shape"></path>
                        </g>
                    </g>
                    <g id="Group-4-Copy" transform="translate(154.130833, 269.900635) rotate(-165.000000) translate(-154.130833, -269.900635) translate(129.130833, 251.400635)">
                        <g id="Group-2-Copy" transform="translate(-0.000000, 0.000000)">
                            <path d="M35.3180725,-4.00700514 L35.3180725,30.9501265 C35.3180725,36.4966495 30.8421343,40.9929949 25.3180725,40.9929949 L25.3180725,40.9929949 C19.795225,40.9929949 15.3180725,36.4929661 15.3180725,30.9501265 L15.3180725,-4.00700514" id="Rectangle-3-Copy-6" fill="#3B86A7" transform="translate(25.318073, 18.492995) rotate(-68.000000) translate(-25.318073, -18.492995) "></path>
                            <path d="M34.3215215,-7.01731322 L34.3215215,27.9398184 C34.3215215,33.4863414 29.8455834,37.9826868 24.3215215,37.9826868 L24.3215215,37.9826868 C18.798674,37.9826868 14.3215215,33.4826581 14.3215215,27.9398184 L14.3215215,-7.01731322" id="Rectangle-3-Copy-2" fill="url(#linearGradient-7)" transform="translate(24.321522, 15.482687) rotate(-75.000000) translate(-24.321522, -15.482687) "></path>
                        </g>
                        <path d="M42.1892504,10.6886041 C45.8682406,12.9760578 47.7765383,17.5321662 46.5790597,22.0012171 C45.118833,27.4508573 39.5883915,30.7039704 34.2344195,29.2693779 L0.468423249,20.2218065 L1.44469889,16.5782962 L30.1482066,24.2693779 C35.5021786,25.7039704 41.0326202,22.4508573 42.4928468,17.0012171 C43.0753671,14.8272218 42.9229392,12.6326252 42.1892504,10.6886041 Z" id="Combined-Shape-Copy" fill="url(#linearGradient-8)"></path>
                    </g>
                    <g id="Group-5-Copy" transform="translate(258.630833, 257.400635) rotate(-60.000000) translate(-258.630833, -257.400635) translate(234.130833, 239.400635)">
                        <g id="Group-2-Copy-3" transform="translate(-0.000000, 0.000000)">
                            <path d="M29.5760824,-0.133983919 L29.5760824,33.2633256 C29.5760824,38.5623573 26.6667226,42.8580712 23.0760824,42.8580712 L23.0760824,42.8580712 C19.4862315,42.8580712 16.5760824,38.5588383 16.5760824,33.2633256 L16.5760824,-0.133983919" id="Rectangle-3-Copy-6" fill="#3B86A7" transform="translate(23.076082, 21.362044) rotate(-68.000000) translate(-23.076082, -21.362044) "></path>
                            <path d="M34.3215215,-7.01731322 L34.3215215,27.9398184 C34.3215215,33.4863414 29.8455834,37.9826868 24.3215215,37.9826868 L24.3215215,37.9826868 C18.798674,37.9826868 14.3215215,33.4826581 14.3215215,27.9398184 L14.3215215,-7.01731322" id="Rectangle-3-Copy-2" fill="url(#linearGradient-7)" transform="translate(24.321522, 15.482687) rotate(-75.000000) translate(-24.321522, -15.482687) "></path>
                        </g>
                        <path d="M42.1892504,10.6886041 C45.8682406,12.9760578 47.7765383,17.5321662 46.5790597,22.0012171 C45.118833,27.4508573 39.5883915,30.7039704 34.2344195,29.2693779 L0.468423249,20.2218065 L1.44469889,16.5782962 L30.1482066,24.2693779 C35.5021786,25.7039704 41.0326202,22.4508573 42.4928468,17.0012171 C43.0753671,14.8272218 42.9229392,12.6326252 42.1892504,10.6886041 Z" id="Combined-Shape-Copy-2" fill="url(#linearGradient-8)"></path>
                    </g>
                    <g id="Group-6-Copy" transform="translate(253.130833, 216.900635) rotate(-60.000000) translate(-253.130833, -216.900635) translate(228.130833, 198.400635)">
                        <g id="Group-2-Copy-2" transform="translate(0.000000, 0.000000)">
                            <path d="M35.3180725,-4.00700514 L35.3180725,30.9501265 C35.3180725,36.4966495 30.8421343,40.9929949 25.3180725,40.9929949 L25.3180725,40.9929949 C19.795225,40.9929949 15.3180725,36.4929661 15.3180725,30.9501265 L15.3180725,-4.00700514" id="Rectangle-3-Copy-6" fill="#3B86A7" transform="translate(25.318073, 18.492995) rotate(-68.000000) translate(-25.318073, -18.492995) "></path>
                            <path d="M34.3215215,-7.01731322 L34.3215215,27.9398184 C34.3215215,33.4863414 29.8455834,37.9826868 24.3215215,37.9826868 L24.3215215,37.9826868 C18.798674,37.9826868 14.3215215,33.4826581 14.3215215,27.9398184 L14.3215215,-7.01731322" id="Rectangle-3-Copy-2" fill="url(#linearGradient-7)" transform="translate(24.321522, 15.482687) rotate(-75.000000) translate(-24.321522, -15.482687) "></path>
                        </g>
                        <path d="M43.1892504,11.6886041 C46.8682406,13.9760578 48.7765383,18.5321662 47.5790597,23.0012171 C46.118833,28.4508573 40.5883915,31.7039704 35.2344195,30.2693779 L1.46842325,21.2218065 L2.44469889,17.5782962 L31.1482066,25.2693779 C36.5021786,26.7039704 42.0326202,23.4508573 43.4928468,18.0012171 C44.0753671,15.8272218 43.9229392,13.6326252 43.1892504,11.6886041 Z" id="Combined-Shape-Copy-3" fill="url(#linearGradient-8)"></path>
                    </g>
                    <g id="Group-9" transform="translate(85.000000, 10.000000)">
                        <rect id="Rectangle-3-Copy-9" fill="#59C2F1" transform="translate(23.000000, 30.000000) rotate(-15.000000) translate(-23.000000, -30.000000) " x="13" y="2" width="20" height="56" rx="10"></rect>
                        <path d="M25.9287728,6.77192116 C22.9786144,1.60131377 16.8200152,-1.14290129 10.802177,0.469573614 C3.64197682,2.38814346 -0.604384413,9.74706412 1.3141481,16.9071249 L10.2405548,50.2209281 C11.6413772,55.4488688 15.9395982,59.1234728 20.9429671,59.9812459 C20.3837122,59.0010656 19.9397557,57.9336907 19.6339132,56.7922709 L10.7075065,23.4784677 C8.78897401,16.3184069 13.0353352,8.95948623 20.1955354,7.04091638 C22.1291152,6.52281524 24.077227,6.45449377 25.9287728,6.77192116 Z" id="Combined-Shape-Copy-6" fill="url(#linearGradient-9)"></path>
                    </g>
                </g>
                <polygon id="Star" fill="#FFFFFF" transform="translate(386.051630, 56.051630) rotate(-285.000000) translate(-386.051630, -56.051630) " points="386.05163 63.7224766 363.964067 78.139194 378.380784 56.0516303 363.964067 33.9640667 386.05163 48.380784 408.139194 33.9640667 393.722477 56.0516303 408.139194 78.139194"></polygon>
                <polygon id="Star-Copy" fill="#FFFFFF" transform="translate(27.051630, 134.051630) rotate(-285.000000) translate(-27.051630, -134.051630) " points="27.0516303 141.722477 4.96406666 156.139194 19.380784 134.05163 4.96406666 111.964067 27.0516303 126.380784 49.139194 111.964067 34.7224766 134.05163 49.139194 156.139194"></polygon>
                <polygon id="Star-Copy-2" fill="#FFFFFF" transform="translate(404.468045, 217.468045) rotate(-285.000000) translate(-404.468045, -217.468045) " points="404.468045 221.57065 392.654936 229.281154 400.36544 217.468045 392.654936 205.654936 404.468045 213.36544 416.281154 205.654936 408.57065 217.468045 416.281154 229.281154"></polygon>
                <polygon id="Star-Copy-3" fill="#FFFFFF" transform="translate(141.468045, 14.468045) rotate(-285.000000) translate(-141.468045, -14.468045) " points="141.468045 18.5706495 129.654936 26.2811538 137.36544 14.4680447 129.654936 2.65493568 141.468045 10.36544 153.281154 2.65493568 145.57065 14.4680447 153.281154 26.2811538"></polygon>
            </g>
        </g>
    </g>
</svg>