<?xml version="1.0" encoding="UTF-8"?>
<svg width="32px" height="32px" viewBox="0 0 32 32" version="1.1" xmlns="http://www.w3.org/2000/svg" xmlns:xlink="http://www.w3.org/1999/xlink">
    <!-- Generator: Sketch 43.2 (39069) - http://www.bohemiancoding.com/sketch -->
    <title>Group 8</title>
    <desc>Created with Sketch.</desc>
    <defs></defs>
    <g id="Caterpillar-App" stroke="none" stroke-width="1" fill="none" fill-rule="evenodd">
        <g id="Artboard-6" transform="translate(-236.000000, -45.000000)">
            <g id="Group-8" transform="translate(236.000000, 45.000000)">
                <g id="Group-7-Copy" fill="#05D329">
                    <circle id="Oval" cx="16" cy="16" r="16"></circle>
                </g>
                <path d="M19.336,8.752 C19.336,7.716 18.468,6.848 17.404,6.848 C16.452,6.848 15.584,7.716 15.584,8.668 C15.584,9.76 16.368,10.6 17.432,10.6 C18.496,10.6 19.336,9.788 19.336,8.752 Z M18.048,22.024 L17.656,22.584 C16.9,23.648 16.284,24.292 15.864,24.292 C15.64,24.292 15.444,24.18 15.444,23.844 C15.444,23.592 15.556,22.892 15.696,22.416 L18.244,13.064 C16.732,13.4 14.744,13.68 12.56,13.848 L12.56,14.604 L12.952,14.604 C13.792,14.604 14.24,14.884 14.24,15.416 C14.24,15.64 14.184,16.004 14.016,16.676 L12.476,22.36 C12.196,23.368 12.056,24.096 12.056,24.488 C12.056,25.692 12.812,26.252 13.96,26.252 C15.64,26.252 16.816,25.44 18.664,22.416 L18.048,22.024 Z" id="i" fill="#FFFFFF"></path>
            </g>
        </g>
    </g>
</svg>